<?xml version="1.0" encoding="UTF-8" standalone="no"?>
<!DOCTYPE svg PUBLIC "-//W3C//DTD SVG 20010904//EN"
              "http://www.w3.org/TR/2001/REC-SVG-20010904/DTD/svg10.dtd">

<svg xmlns="http://www.w3.org/2000/svg"
     width="38.8992mm" height="38.8992mm"
     viewBox="0 0 147 147">
  <path id="Selection"
        fill="none" stroke="white" stroke-width="1"
        d="M 73.00,12.70
           C 79.23,13.74 83.82,17.09 100.36,27.09
             102.65,29.74 130.60,52.14 131.39,54.18
             132.57,57.25 125.64,83.82 125.64,83.82
             123.27,91.82 113.33,120.87 111.69,121.98
             109.51,123.45 86.11,124.78 74.55,124.91
             61.59,125.06 35.66,123.55 33.51,121.98
             31.47,120.49 20.34,84.64 19.64,82.36
             18.23,77.78 12.67,57.44 13.83,54.21
             14.49,52.36 30.49,40.61 46.55,26.91
             55.27,21.27 65.45,15.64 73.00,12.70 Z
           M 35.00,119.00
           C 35.00,119.00 66.00,121.09 74.55,121.09
             84.18,120.91 100.18,120.18 110.00,119.00
             110.00,119.00 123.27,82.73 123.27,82.73
             124.36,76.91 129.59,57.69 128.65,55.17
             128.65,55.17 99.82,29.64 99.82,29.64
             88.36,22.00 76.30,15.44 73.00,15.34
             65.64,17.64 65.27,18.18 47.82,28.73
             47.82,28.73 16.36,54.37 16.36,54.37
             14.97,57.34 22.18,80.55 22.18,80.55
             24.34,90.69 35.00,119.00 35.00,119.00 Z
           M 68.18,24.91
           C 68.20,24.93 68.62,20.92 71.64,21.09
             73.39,20.93 75.45,20.00 76.73,25.27
             75.09,28.36 75.64,27.82 72.36,28.73
             69.45,28.00 68.55,28.00 68.18,24.91 Z
           M 52.00,48.73
           C 49.09,48.18 39.38,60.87 38.36,67.82
             35.82,73.27 44.91,93.27 47.27,96.73
             48.00,99.82 52.04,105.14 72.73,104.91
             77.22,104.86 90.66,103.25 92.73,100.91
             100.43,92.16 105.47,83.76 106.01,72.01
             106.91,68.36 101.27,51.82 93.64,48.55
             88.00,42.55 80.73,39.64 71.64,39.45
             64.00,38.55 51.64,48.73 51.64,48.73
             51.64,48.73 51.64,48.73 52.00,48.73 Z
           M 48.91,46.18
           C 48.91,46.18 63.09,35.09 71.45,35.45
             78.67,36.49 88.91,38.73 95.64,45.82
             109.82,57.64 111.64,73.64 104.73,91.09
             100.18,96.91 101.09,98.55 94.91,103.27
             92.16,104.68 75.69,107.79 72.55,108.18
             63.82,108.36 57.82,107.45 49.26,102.84
             44.24,99.12 38.55,84.73 38.55,84.73
             36.91,79.45 35.33,68.53 35.50,66.00
             35.93,59.72 43.54,48.94 48.91,46.18" />
</svg>
