<svg xmlns="http://www.w3.org/2000/svg" viewBox="0 0 128 128"><defs/><path fill="none" stroke="white" stroke-width="1.5" d="M58.55 55.82l-11.1-5.64c.69 1.13 4.19 14.18 8 14-.63.52 4.26 3.71 5.28 2.55l-.18 3.09c-.33-1.12-2.82 4.38-2.19 6.54-.67-.18.28 9.13 2.19 9.64l-.91 6.91c-9.79 1.3-11.31 10.82-11.82 14.91-1.58 4.72-1.03 8.43 6.91 9.09 3.89 5.8 15.27 5.31 17.27 2.91-.12.98 16.16-.57 16.55-4.37.92.29.43-14.13-.91-14.54-2.3-1.56-8.84 2.37-9.09-5.46-.19 0-.91-10-.91-10l2.72-5.63c1.64.36 7.93.5 9.64-5.46-.53-.39-11.95-7.32-12.73-6.36l2.18-5.09c.13.11 11.49 2.83 13.1-2.18 1.63-.37 7.49-4.91 6.54-5.64L94 54c.34.4 4.45-8.13 5.09-8.36l-4.36.54c-1.81.61-4.31-13.23-4-13.45-1.18 5.3-5.5 13.72-12.73 12.36-.88-6.99-10.92-8.41-15.09-7.64-1.23.95-10.12-12.35-9.64-12.72-3.25.49-5.73-17.09-4.72-17.28-.87-.21-6.21 8.58-4.91 9.1-1.57-1.03-4.63-4.74-4.19-4.37-.74.45-.16 6.76 0 6.55-.18 0 4.19 5.09 4.19 5.09l-4.73-2.55c-.36.88 5.68 11.61 5.82 11.28-2.09.67 11.03 18.48 12.66 17.95m9.52 1.5c.64 1.44 6.71-1.21 6.36-2 .25-.33 1.27 2.3.55 3.64 1.02.32-4.96 1.73-5.27 1.63l-2-3.27m-3.64-14.53c-6.16 1.86-6.43 16.55-4.37 18.34m19.02 2.47c.73.51 1.3-9.85.1-10.4m1.43 15"/></svg>