<svg xmlns="http://www.w3.org/2000/svg" viewBox="0 0 100 100"><defs/><path fill="none" stroke="white" d="M20.27 18.02c-3.26.81-7.71 3.17-10.06 6.02-5.6 6.28-4.78 11.43-5.3 18.96l-.95 11c-.6 12.58-5.94 27.17 3.37 37.96C9.65 94.65 12.61 97 16 98.15c2.88.97 6 .85 9 .85h50c3.01 0 6.09.1 9-.8 18.17-5.67 12.68-28.02 12.04-42.2-.3-6.59-.98-22.56-3.61-28-3.11-6.45-9.49-10.26-16.43-11-1.88-6.09-9.86-10.55-15-14.15C58.68 1.22 55.38-.9 52.57 1 49.62 2.99 49.5 13.23 49 17c-1.3-3.95-2-14.18-4.65-15.99C41.29-1.08 36.5 2.34 34 4.03l-11.69 8.9c-1.86 1.26-2.43 7.13-2.3 9.07m56.52-2.07c5.45.78 10.14 4.05 12.9 9.08 3.15 5.73 2.14 11.92 2.85 17.99l.89 12C94.32 71.11 98.6 90.46 83 95.35c-2.41.76-5.47.65-8 .65H25c-2.53 0-5.59.11-8-.65C3.25 91.04 5.79 74.94 6.83 64l1.08-16C8.66 37.28 7.67 26.21 20 22l-2 12c-1.36.36-2.61.56-3.87 1.3-8.22 4.79 1.16 11.69 4.69 15.7 1.59 1.81 4.76 6.96 7.21 6.96 3.36 0 3.78-4.59 3.97-6.96 3.59 1.72 5.5 3.01 6.77 7 .91 2.83.79 8.3 2.83 10.26 2.09 2.02 4.85 1.38 7.4 1.25 2.96-.15 7.26.88 9.69-.69 2.89-1.87 2.79-7.65 3.84-10.82 1.47-4.44 3.54-5.87 7.47-8-.29 2.38-.84 7.96 3.02 7.96 2.38 0 5.61-5.19 7.16-6.96 3.6-4.08 13.11-10.92 4.71-15.7-1.27-.73-2.51-.94-3.89-1.3l-3-17M28 33c2.16-.61 3.68-1.11 6-.76 3.98.6 8.83 4.48 9.1 8.72.3 4.79-5.14 6.43-10.06 2.61-1.23-.96-2.43-2.25-3.25-3.59-1.42-2.3-1.52-4.4-1.79-6.98zm41-.79c-.03 2.21.11 4.56-1.02 6.79-.72 1.42-1.86 2.72-3.04 3.77-11.28 10.11-15.46-6.9-2.94-10.56 1.86-.29 5.01-.2 7 0zM30 50v1l-1-1h1z"/></svg>