<?xml version="1.0" encoding="UTF-8" standalone="no"?>
<!DOCTYPE svg PUBLIC "-//W3C//DTD SVG 20010904//EN"
              "http://www.w3.org/TR/2001/REC-SVG-20010904/DTD/svg10.dtd">

<svg xmlns="http://www.w3.org/2000/svg"
     width="3.62867mm" height="3.62867mm"
     viewBox="0 0 24 24">
  <path id="Selection #1"
        fill="none" stroke="black" stroke-width=".25"
        d="M 13.00,3.00
           C 13.00,3.00 20.00,19.00 20.00,19.00
             20.00,19.00 17.13,18.91 17.13,18.91
             15.04,14.78 13.57,12.48 11.48,7.87
             9.35,12.13 8.09,14.30 6.13,19.04
             6.13,19.04 3.00,19.00 3.00,19.00
             3.00,19.00 10.00,3.00 10.00,3.00
             10.00,3.00 13.00,3.00 13.00,3.00 Z
           M 11.52,11.00
           C 11.52,11.00 14.00,16.00 14.00,16.00
             14.00,16.00 9.00,16.00 9.00,16.00
             9.00,16.00 11.52,11.00 11.52,11.00 Z" />
</svg>
