<?xml version="1.0" encoding="UTF-8" standalone="no"?>
<!DOCTYPE svg PUBLIC "-//W3C//DTD SVG 20010904//EN"
              "http://www.w3.org/TR/2001/REC-SVG-20010904/DTD/svg10.dtd">

<svg xmlns="http://www.w3.org/2000/svg"
     width="0.426667in" height="0.426667in"
     viewBox="0 0 128 128">
  <path id="Selection"
        fill="none" stroke="black" stroke-width="1"
        d="M 70.00,18.00
           C 71.29,21.22 74.64,31.40 77.39,32.89
             80.71,34.68 90.55,29.46 94.00,28.00
             94.00,28.00 80.09,28.68 80.09,28.68
             80.09,28.68 70.00,18.00 70.00,18.00 Z
           M 54.00,20.00
           C 52.69,23.02 50.95,27.43 47.90,29.06
             45.13,30.53 37.37,28.45 34.00,28.00
             36.74,29.98 46.47,34.24 49.76,33.19
             52.98,32.17 55.08,23.09 56.00,20.00
             56.00,20.00 54.00,20.00 54.00,20.00 Z
           M 100.06,37.00
           C 98.89,40.18 94.65,48.82 95.67,51.61
             96.88,54.96 107.59,58.08 111.00,59.00
             111.00,59.00 100.06,49.90 100.06,49.90
             100.06,49.90 100.06,37.00 100.06,37.00 Z
           M 95.00,77.00
           C 95.00,77.00 102.00,95.00 102.00,95.00
             103.03,89.87 99.58,84.81 100.24,81.30
             100.92,77.65 109.80,72.80 113.00,71.00
             107.85,70.08 99.85,74.92 95.00,77.00 Z
           M 19.00,72.00
           C 19.00,72.00 28.89,81.09 28.89,81.09
             28.89,81.09 28.00,93.00 28.00,93.00
             30.38,90.00 35.15,82.20 32.94,78.39
             31.21,75.42 22.35,72.79 19.00,72.00 Z
           M 37.00,104.00
           C 39.67,103.23 46.41,101.07 48.91,101.77
             52.32,102.73 56.04,109.08 58.00,112.00
             58.84,106.14 54.21,100.48 51.00,96.00
             45.81,97.40 39.82,99.16 37.00,104.00 Z
           M 94.00,104.00
           C 89.65,100.54 84.39,98.27 79.00,97.00M 81.00,81.00
           C 83.45,78.91 85.45,71.27 85.45,71.27
             87.64,64.36 84.79,55.99 81.61,52.02
             74.77,43.46 61.25,41.20 52.00,47.13
             38.09,56.05 39.11,77.98 54.00,85.51
             60.14,88.52 67.77,88.83 73.91,85.51
             73.91,85.51 81.00,81.00 81.00,81.00 Z
           M 62.00,63.00
           C 59.33,68.76 59.55,78.41 67.91,79.30
             69.48,79.47 74.00,80.00 74.00,80.00
             62.33,92.98 46.88,77.39 53.17,65.00
             57.53,56.44 69.48,55.18 72.00,67.00
             73.97,58.38 65.76,51.18 58.00,53.70
             52.47,55.50 50.58,60.29 46.00,63.00
             47.45,56.82 49.94,51.48 56.00,48.57
             66.12,43.72 79.84,48.77 80.78,61.00
             81.64,72.35 69.14,77.93 63.74,70.77
             61.98,68.45 62.07,65.75 62.00,63.00 Z
           M 80.00,68.00 80.00,68.00 80.00,68.00 80.00,68.00
           M 74.00,85.00 74.00,85.00 74.00,85.00 74.00,85.00
           M 63.00,16.00
           C 60.72,21.20 57.21,35.46 51.90,37.36
             46.55,39.28 33.76,31.64 28.00,30.00
             30.03,35.54 37.69,47.47 36.23,53.00
             35.53,55.64 33.12,57.67 31.00,59.21
             29.14,60.56 27.11,61.65 25.00,62.54
             21.86,63.86 19.34,64.48 16.00,65.00
             19.82,70.68 30.75,70.33 35.65,76.21
             40.33,81.84 31.75,94.85 30.00,101.00
             39.68,98.24 51.20,87.76 58.10,100.00
             59.17,101.90 59.95,103.94 60.64,106.00
             60.64,106.00 63.00,115.00 63.00,115.00
             68.54,111.53 69.39,101.32 74.53,96.31
             80.56,90.45 92.81,98.33 99.00,101.00
             97.79,94.53 91.19,84.66 92.35,79.01
             93.74,72.30 107.22,68.55 113.00,66.00
             108.53,62.56 95.81,61.24 92.26,53.83
             89.61,48.28 98.25,35.12 100.00,29.00
             95.04,31.14 81.07,38.66 76.10,37.23
             71.14,35.79 66.31,20.85 65.00,16.00
             65.00,16.00 63.00,16.00 63.00,16.00 Z
           M 65.00,33.00
           C 65.00,33.00 66.00,39.00 66.00,39.00
             73.72,40.09 75.32,41.47 82.00,45.00
             82.00,45.00 85.76,41.00 85.76,41.00
             85.76,41.00 85.76,48.42 85.76,48.42
             85.76,48.42 91.00,64.00 91.00,64.00
             91.00,64.00 97.00,64.00 97.00,64.00
             97.00,64.00 97.00,66.00 97.00,66.00
             87.17,69.68 93.73,69.05 84.00,84.00
             84.00,84.00 88.00,89.00 88.00,89.00
             88.00,89.00 80.58,87.53 80.58,87.53
             80.58,87.53 66.00,92.00 66.00,92.00
             66.00,92.00 65.00,98.00 65.00,98.00
             65.00,98.00 63.00,98.00 63.00,98.00
             63.00,98.00 62.00,92.00 62.00,92.00
             54.95,90.91 52.16,89.24 46.00,86.00
             46.00,86.00 41.00,90.00 41.00,90.00
             41.65,86.19 41.75,86.08 45.00,84.00
             40.23,78.13 38.63,74.53 38.00,67.00
             38.00,67.00 31.00,67.00 31.00,67.00
             31.00,67.00 31.00,65.00 31.00,65.00
             31.00,65.00 38.00,64.00 38.00,64.00
             38.72,55.41 40.48,54.32 44.00,47.00
             44.00,47.00 40.00,42.00 40.00,42.00
             43.81,42.65 43.92,42.75 46.00,46.00
             51.65,41.69 54.96,40.09 62.00,39.00
             62.00,39.00 63.00,33.00 63.00,33.00
             63.00,33.00 65.00,33.00 65.00,33.00 Z
           M 25.00,36.00
           C 26.04,39.59 28.89,47.59 27.10,50.90
             24.85,55.07 19.34,55.39 16.00,61.00
             19.65,60.15 31.08,56.42 32.96,53.37
             34.67,50.61 29.96,40.66 28.04,38.29
             26.85,36.83 26.47,36.86 25.00,36.00 Z
           M 78.73,97.09
           C 75.03,96.49 69.83,116.46 70.36,116.55
             69.76,116.37 76.76,100.02 80.36,101.09
             81.32,100.32 94.63,103.68 94.00,104.18" />
</svg>
