<?xml version="1.0" encoding="UTF-8" standalone="no"?>
<!DOCTYPE svg PUBLIC "-//W3C//DTD SVG 20010904//EN"
              "http://www.w3.org/TR/2001/REC-SVG-20010904/DTD/svg10.dtd">

<svg xmlns="http://www.w3.org/2000/svg"
     width="0.166667in" height="0.166667in"
     viewBox="0 0 50 50">
  <path id="Unnamed"
        fill="none" stroke="black" stroke-width=".5"
        d="M 5.00,45.00
           C 5.00,45.00 5.00,15.00 5.00,15.00
             5.00,15.00 25.00,5.00 25.00,5.00
             25.00,5.00 45.00,15.00 45.00,15.00
             45.00,15.00 45.00,45.00 45.00,45.00
             45.00,45.00 5.00,45.01 5.00,45.01M 20.02,45.02
           C 20.02,45.02 20.00,30.00 20.00,30.00
             20.00,30.00 30.00,30.00 30.00,30.00
             30.00,30.00 30.05,44.98 30.05,44.98M 28.48,37.50
           C 28.48,37.50 28.49,38.49 28.49,38.49
             28.49,38.49 29.47,38.48 29.47,38.48
             29.47,38.48 29.47,37.49 29.47,37.49
             29.47,37.49 28.48,37.50 28.48,37.50" />
</svg>
