<?xml version="1.0" encoding="UTF-8" standalone="no"?>
<!DOCTYPE svg PUBLIC "-//W3C//DTD SVG 20010904//EN"
              "http://www.w3.org/TR/2001/REC-SVG-20010904/DTD/svg10.dtd">

<svg xmlns="http://www.w3.org/2000/svg" 
	 width="29.1236mm" height="33.8893mm"
	 viewBox="-20 -20 350 350">
  <path 
		fill="none" stroke="white" stroke-width="3"
		d="M121 80l-10-4c-7-3-17-11-21-18-3-4-4-9-5-15 0-3 0-6-3-9l2 
		14-5-2v14c2 10 9 19 18 24l19 5v2c-11 4-12 5-20 12-19 14-22 27-30 
		47l-9 24-4 13-10 21c12-5 23-15 27-29 0 6-4 14-6 19-4 9-10 26-15 
		33-6 10-14 14-18 26 9-2 12-6 20-11 13-10 19-11 28-28 3-6 1-11 
		2-16l7-10c0 22 8 37 25 49 5 4 13 9 20 9 7-1 17-7 22-12 14-13 25-32 
		25-52l12 9 5 7c5 10 12 17 24 17l3-3-7-9-10-20h-1l-1 2c-5-6-9-10-9-18l14 
		17 8 9 16 4c14 5 30 11 45 11-5-5-13-8-19-11-15-9-28-15-40-28-11-11-13-34-28-48l-6-6c-7-7-6-7-15-14-5-4-17-10-20-14-2-3-2-6-3-10l17-1-1-3c6-2 11-4 11-12l-8 3-15-2c15-11 31-11 40-23l-19 3-10-1c-7 0-18 3-23 8-5 4-8 13-9 19-12-12-7-20-7-35 0-19 2-19 10-36-5 0-12 0-15 2-3 1-6 6-8 8-5 7-9 21-9 29-1 6 2 17 5 22 3 7 8 9 14 18zM88 192l11-16 8-15 9 29m0 0c2 8 11 16 18 20l14-23c2-9 5-7 8-12l4-8-2 20 11-21 11 20m16-16v1l-1-1h1zM92 
		201l4 1c2-11 16-4 17 2s-5 9-9 8c-7-1-10-5-12-11zm76 1l4-1c-3 6-5 9-11 11-5 2-10-1-10-7 1-8 14-14 17-3z" />
</svg>