<svg xmlns="http://www.w3.org/2000/svg" viewBox="0 0 128 128"><defs/><path fill="none" stroke="#000" d="M36 92c7-4 4-8 3-14 12 7 14 11 14 25 5 0 8 1 11-3 4 4 7 3 12 3 0-14 2-18 14-25-1 6-3 8 1 14l12-14c2-2 5-4 6-7 1-6-7-6-9-11l-4-19c-1-4-5-6-8-8-5-3-11-9-17-11-3 6-4 14-5 21-7-4-2-10-8-21-6 3-11 7-17 11-3 2-6 4-8 7l-4 20c-2 5-10 4-9 11 1 3 5 6 7 8 4 4 7 8 9 13zm20-64c-2 5-14 14-20 14 4-5 14-12 20-14zm1 50c-7 0-11-1-15-7-3-3-4-9 0-12 5-3 16 3 18 11 0 4-2 5-3 8zm15 0l-2-2c0-2-1-5 0-7 2-6 12-14 18-9 3 3 2 8 0 11-5 6-9 7-16 7zM29 66l-6 5c1-4 2-4 6-5zm27 25l1 9c-2-3-2-5-1-9z"/></svg>