<?xml version="1.0" encoding="UTF-8" standalone="no"?>
<!DOCTYPE svg PUBLIC "-//W3C//DTD SVG 20010904//EN"
              "http://www.w3.org/TR/2001/REC-SVG-20010904/DTD/svg10.dtd">

<svg xmlns="http://www.w3.org/2000/svg"
     width="0.2in" height="0.2in"
     viewBox="0 0 60 60">
  <path id="Selection"
        fill="none" stroke="black" stroke-width=".5"
        d="M 15.00,9.00
           C 21.74,10.64 29.08,9.95 36.00,10.00
             38.00,10.01 40.98,9.88 42.69,11.02
             45.05,12.60 44.95,15.48 45.00,18.00
             45.00,18.00 45.00,41.00 45.00,41.00
             45.00,42.86 44.75,46.80 45.99,48.22
             47.27,49.69 54.84,51.77 54.79,40.00
             54.79,40.00 54.79,13.00 54.79,13.00
             54.32,11.09 54.01,5.90 52.98,4.60
             51.41,2.62 47.30,3.00 45.00,3.00
             45.00,3.00 25.00,3.00 25.00,3.00
             22.87,3.01 20.09,2.89 18.22,4.02
             16.11,5.30 15.75,6.87 15.00,9.00 Z
           M 6.60,13.02
           C 4.20,16.37 5.00,21.01 5.00,25.00
             5.00,25.00 5.00,51.00 5.00,51.00
             5.04,53.10 4.94,55.67 6.60,57.24
             9.30,59.80 23.81,59.00 28.00,59.00
             31.12,59.00 40.27,59.54 42.41,57.40
             44.32,55.47 43.99,51.54 44.00,49.00
             44.00,49.00 44.00,21.00 44.00,21.00
             44.00,18.70 44.38,14.59 42.40,13.02
             40.81,11.77 36.99,12.00 35.00,12.00
             28.90,11.99 11.24,11.05 6.60,13.02 Z" />
</svg>
