<?xml version="1.0" encoding="UTF-8" standalone="no"?>
<!DOCTYPE svg PUBLIC "-//W3C//DTD SVG 20010904//EN"
              "http://www.w3.org/TR/2001/REC-SVG-20010904/DTD/svg10.dtd">

<svg xmlns="http://www.w3.org/2000/svg"
     width="29.1236mm" height="33.8893mm"
     viewBox="0 0 110 128">
  <path id="Selection"
        fill="none" stroke="#007bff" stroke-width="10"
        d="M 53.00,2.00
           C 53.00,2.00 41.69,20.00 41.69,20.00
             40.10,22.47 36.88,27.11 36.80,30.00
             36.73,32.82 39.19,36.60 40.60,39.00
             42.37,41.98 44.84,47.08 48.10,48.40
             49.66,49.03 52.31,49.02 54.00,48.98
             62.88,48.81 64.11,45.09 68.15,38.00
             69.37,35.86 71.47,32.47 71.45,30.00
             71.43,27.23 68.66,23.37 67.19,21.00
             67.19,21.00 55.00,2.00 55.00,2.00
             55.00,2.00 53.00,2.00 53.00,2.00 Z
           M 108.00,32.00
           C 108.00,32.00 85.00,30.78 85.00,30.78
             82.49,30.77 77.30,29.74 75.17,30.78
             72.55,31.72 70.62,35.63 69.20,38.00
             67.63,40.62 64.84,45.02 64.49,48.00
             64.04,51.82 68.80,60.87 72.33,62.43
             73.93,63.14 77.19,63.00 79.00,63.00
             82.11,63.01 90.23,63.50 92.61,61.98
             94.82,60.57 96.55,56.34 97.78,54.00
             100.94,48.00 106.82,38.28 108.00,32.00 Z
           M 17.51,64.67
           C 16.99,64.59 15.10,67.28 15.10,67.28
             15.10,67.28 1.00,95.00 1.00,95.00
             1.00,95.00 23.00,96.30 23.00,96.30
             26.04,96.46 31.83,97.72 34.61,96.30
             36.89,95.37 38.91,91.18 40.15,89.00
             45.41,79.80 47.18,79.00 42.40,71.00
             41.44,69.41 39.93,66.55 38.43,65.47
             35.81,64.61 33.23,64.77 31.27,64.67
             26.78,64.51 17.66,64.60 17.49,64.67M 109.00,94.00
           C 109.00,94.00 98.76,74.00 98.76,74.00
             97.62,71.77 95.26,66.32 93.37,64.99
             91.58,63.75 88.13,64.00 86.00,64.00
             77.44,63.99 72.87,62.01 68.02,70.00
             67.10,71.51 65.49,74.34 65.07,76.00
             64.17,79.61 66.05,81.97 67.70,85.00
             70.79,90.71 72.56,97.05 80.00,96.65
             89.30,96.16 100.14,96.60 109.00,94.00 Z
           M 54.00,126.00
           C 54.00,126.00 56.00,126.00 56.00,126.00
             56.00,126.00 67.31,108.00 67.31,108.00
             68.86,105.59 72.13,100.76 72.37,98.00
             72.64,94.93 70.32,91.59 68.85,89.00
             67.24,86.18 64.82,80.90 61.79,79.60
             60.25,78.94 57.69,79.01 56.00,79.00
             46.34,78.94 46.89,78.91 41.15,89.00
             39.71,91.53 37.35,95.02 37.49,98.00
             37.62,100.96 40.37,104.51 41.95,107.00
             41.95,107.00 54.00,126.00 54.00,126.00 Z
           M 35.96,63.02
           C 39.15,61.68 43.77,53.38 43.97,50.00
             44.15,47.15 42.20,44.39 40.85,42.00
             35.74,32.98 36.23,31.13 29.00,31.00
             29.00,31.00 0.00,33.00 0.00,33.00
             0.00,33.00 16.11,63.11 16.11,63.11
             16.53,65.03 34.70,63.46 35.98,63.02" />
</svg>
