<?xml version="1.0" encoding="UTF-8" standalone="no"?>
<!DOCTYPE svg PUBLIC "-//W3C//DTD SVG 20010904//EN"
              "http://www.w3.org/TR/2001/REC-SVG-20010904/DTD/svg10.dtd">

<svg xmlns="http://www.w3.org/2000/svg"
     width="0.333333in" height="0.333333in"
     viewBox="0 0 100 100">
  <path id="Selection"
        fill="none" stroke="black" stroke-width=".5"
        d="M 6.00,76.00
           C 6.00,76.00 6.00,36.00 6.00,36.00
             6.00,36.00 35.00,36.00 35.00,36.00
             35.00,36.00 35.00,95.00 35.00,95.00
             35.00,95.00 35.96,95.09 35.96,95.09
             35.96,95.09 36.00,67.00 36.00,67.00
             36.00,67.00 36.00,7.00 36.00,7.00
             36.00,7.00 55.00,7.00 55.00,7.00
             64.02,7.02 65.00,6.91 65.00,6.91
             65.00,6.91 64.87,7.41 65.00,20.00
             65.00,20.00 65.00,95.00 65.00,95.00
             65.00,94.96 65.96,95.00 65.96,95.00
             65.96,95.00 66.00,72.38 66.00,66.00
             66.00,66.00 94.00,66.00 94.00,66.00
             94.00,66.00 94.00,95.00 94.00,95.00
             94.00,95.00 95.00,95.00 95.00,95.00
             95.00,95.00 95.04,65.00 95.04,65.00
             95.04,65.00 66.12,65.00 66.12,65.00
             66.12,65.00 66.12,48.00 66.12,48.00
             66.12,48.00 66.12,38.00 66.12,38.00
             66.12,38.00 66.04,6.00 66.04,6.00
             66.04,6.00 34.91,5.96 34.91,5.96
             34.91,5.96 35.00,35.00 35.00,35.00
             35.00,35.00 5.00,35.00 5.00,35.00
             5.00,35.00 4.96,95.00 4.96,95.00
             4.96,95.00 6.00,95.04 6.00,95.04
             6.00,95.04 6.00,76.00 6.00,76.00 Z
           M 50.09,25.00
           C 50.09,25.00 51.09,24.96 51.09,24.96
             51.09,24.96 51.09,45.96 51.09,45.96
             51.09,45.96 50.13,46.00 50.13,46.00
             50.13,46.00 50.09,25.00 50.09,25.00 Z
           M 14.96,55.00
           C 14.96,55.00 16.00,55.00 16.00,55.00
             16.00,55.00 16.09,75.96 16.09,75.96
             16.09,75.96 15.04,75.87 15.04,75.87
             15.04,75.87 14.96,55.00 14.96,55.00 Z
           M 25.04,54.96
           C 25.04,54.96 26.04,54.96 26.04,54.96
             26.04,54.96 26.04,76.04 26.04,76.04
             26.04,76.04 24.91,76.00 24.91,76.00
             24.91,76.00 25.04,54.96 25.04,54.96 Z
           M 72.09,71.96
           C 72.09,71.96 73.00,72.00 73.00,72.00
             73.00,72.00 73.04,93.00 73.04,93.00
             73.04,93.00 71.96,93.00 71.96,93.00
             71.96,93.00 72.09,71.96 72.09,71.96 Z
           M 80.13,72.00
           C 80.13,72.00 81.04,72.00 81.04,72.00
             81.04,72.00 81.04,93.04 81.04,93.04
             81.04,93.04 80.04,93.04 80.04,93.04
             80.04,93.04 80.13,72.00 80.13,72.00 Z
           M 88.00,71.96
           C 88.00,71.96 89.09,71.91 89.09,71.91
             89.09,71.91 89.04,93.04 89.04,93.04
             89.04,93.04 88.00,93.04 88.00,93.04
             88.00,93.04 88.00,71.96 88.00,71.96 Z" />
</svg>
