<?xml version="1.0" encoding="UTF-8" standalone="no"?>
<!DOCTYPE svg PUBLIC "-//W3C//DTD SVG 20010904//EN"
              "http://www.w3.org/TR/2001/REC-SVG-20010904/DTD/svg10.dtd">

<svg xmlns="http://www.w3.org/2000/svg"
     width="0.166667in" height="0.166667in"
     viewBox="0 0 50 50">
  <path id="Unnamed"
        fill="none" stroke="black" stroke-width=".5"
        d="M 10.00,23.00
           C 10.00,23.00 10.00,25.00 10.00,25.00
             10.00,25.00 22.00,35.00 22.00,35.00
             22.00,35.00 10.00,46.00 10.00,46.00
             10.00,46.00 10.00,48.00 10.00,48.00
             10.00,48.00 24.96,38.04 24.96,38.04
             24.96,38.04 40.00,48.00 40.00,48.00
             40.00,48.00 40.00,46.00 40.00,46.00
             40.00,46.00 28.00,35.00 28.00,35.00
             28.00,35.00 40.00,25.00 40.00,25.00
             40.00,25.00 40.00,23.00 40.00,23.00
             40.00,23.00 25.04,32.00 25.04,32.00
             25.04,32.00 10.00,23.12 10.00,23.12M 20.00,25.00
           C 20.00,25.00 20.00,20.00 20.00,20.00
             19.00,18.81 14.75,15.00 15.00,12.50
             14.25,10.50 17.50,3.56 20.00,3.00
             20.44,1.88 28.19,1.62 30.00,3.06
             33.38,3.69 35.75,10.56 35.00,12.50
             35.06,12.44 32.88,18.00 30.00,20.00
             30.00,20.00 30.00,25.00 30.00,25.00
             30.00,25.00 20.00,25.00 20.00,25.00M 21.88,8.19
           C 21.83,8.08 19.73,8.84 20.12,9.75
             19.44,10.92 21.68,12.36 22.00,11.81
             22.07,12.00 24.23,10.61 23.88,9.62
             24.41,9.36 22.65,7.83 21.94,8.19M 28.75,8.31
           C 27.44,8.27 26.54,9.99 26.94,10.00
             26.73,11.70 28.96,11.75 29.00,11.44
             29.86,11.93 31.04,10.14 30.69,9.94
             31.06,9.71 29.65,7.84 28.75,8.38" />
</svg>
